<?xml version="1.0" encoding="utf-8"?>

<!DOCTYPE svg PUBLIC "-//W3C//DTD SVG 1.1//EN" "http://www.w3.org/Graphics/SVG/1.1/DTD/svg11.dtd">
<svg version="1.1" id="Ebene_1" xmlns="http://www.w3.org/2000/svg" xmlns:xlink="http://www.w3.org/1999/xlink" x="0px" y="0px"
	 width="1024px" height="230px" viewBox="0 0 1024 230" enable-background="new 0 0 1024 230" xml:space="preserve">
<rect x="-0.308" y="-0.443" fill="#00AAAD" width="54.932" height="230.681"/>
<polyline fill="#00AAAD" points="238.421,230.237 165.245,59.231 165.245,230.237 110.212,230.237 110.212,-0.443 187.984,-0.443 
	266.845,177.604 266.845,-0.443 321.888,-0.443 321.888,230.237 238.421,230.237 "/>
<path fill="#00AAAD" d="M378.998-0.443h74.436c68.58,0.051,120.276,39.879,120.246,114.587
	c-0.04,79.385-51.666,115.065-120.246,116.094h-74.436V-0.443 M433.9,181.574h16.177c57.221,0.07,70.071-32.597,70.132-67.153
	c0.061-32.708-13.698-67.027-70.132-66.881H433.9V181.574z"/>
<polyline fill="#00AAAD" points="618.06,-0.443 770.6,-0.443 770.6,47.816 673.233,47.816 673.233,91.652 770.56,91.652 
	770.56,136.197 673.233,136.197 673.233,181.574 770.51,181.574 770.51,230.237 618.06,230.237 618.06,-0.443 "/>
<polyline fill="#00AAAD" points="860.276,230.237 799.9,230.237 882.34,113.872 802.169,-0.443 861.969,-0.443 912.427,71.276 
	962.742,-0.443 1023.128,-0.443 942.382,113.978 1023.692,230.237 963.941,230.237 912.084,156.578 860.276,230.237 "/>
</svg>
